<svg width="650" height="464" viewBox="0 0 650 464" fill="none" xmlns="http://www.w3.org/2000/svg">
<path d="M151.067 93.792C151.067 98.688 146.699 103.056 140.843 103.056C135.611 103.056 131.147 99.888 131.147 95.52C131.147 93.408 132.683 92.736 133.835 92.736C135.227 92.736 136.523 93.696 136.523 95.424C136.523 97.248 135.035 98.304 133.355 98.064C135.035 100.896 138.635 101.712 140.699 101.712C142.811 101.712 146.123 100.32 146.123 93.792C146.123 89.088 144.347 85.824 140.411 85.824H138.299C137.483 85.824 137.147 85.824 137.147 85.296C137.147 84.816 137.483 84.768 137.867 84.72C138.203 84.72 139.355 84.624 139.739 84.576C140.939 84.528 142.571 84.384 144.011 82.08C145.259 79.968 145.355 77.184 145.355 76.608C145.355 72.288 142.715 71.232 140.747 71.232C139.019 71.232 135.851 71.856 134.363 74.208C135.083 74.208 137.339 74.208 137.339 76.608C137.339 78 136.379 79.056 134.891 79.056C133.499 79.056 132.443 78.144 132.443 76.56C132.443 72.912 136.091 70.032 140.939 70.032C145.547 70.032 149.771 72.72 149.771 76.656C149.771 80.448 146.987 83.808 143.051 85.104C148.043 86.112 151.067 89.856 151.067 93.792ZM178.427 83.952C178.427 85.872 176.891 86.736 175.835 86.736C174.539 86.736 174.011 85.824 174.011 85.056C174.011 83.904 174.971 82.704 176.315 82.464C175.307 81.84 174.155 81.84 173.915 81.84C170.555 81.84 169.451 86.256 169.163 87.504L167.531 94.08C167.003 96.192 166.715 97.248 166.715 98.304C166.715 99.936 167.483 101.472 169.355 101.472C170.891 101.472 174.155 100.32 175.739 95.184C175.835 94.848 175.931 94.656 176.363 94.656C176.507 94.656 176.939 94.656 176.939 95.136C176.939 96.336 174.203 102.528 169.259 102.528C166.379 102.528 164.651 100.656 164.075 98.88C163.931 99.168 162.203 102.528 159.035 102.528C156.923 102.528 154.523 101.568 154.523 99.36C154.523 97.824 155.723 96.576 157.163 96.576C157.883 96.576 158.939 96.96 158.939 98.256C158.939 99.6 157.883 100.608 156.683 100.848C157.691 101.472 158.795 101.472 159.083 101.472C161.195 101.472 162.875 99.456 163.643 96.48C165.419 89.76 166.235 86.544 166.235 85.056C166.235 82.272 164.555 81.84 163.643 81.84C162.011 81.84 158.843 83.04 157.211 88.128C157.115 88.56 156.971 88.656 156.587 88.656C156.587 88.656 156.011 88.656 156.011 88.176C156.011 86.976 158.747 80.784 163.739 80.784C165.131 80.784 167.723 81.264 168.923 84.432C169.499 83.328 171.179 80.784 173.963 80.784C175.595 80.784 178.427 81.456 178.427 83.952ZM193.762 81.0752C193.762 84.0128 191.141 86.6336 187.627 86.6336C184.488 86.6336 181.81 84.7328 181.81 82.112C181.81 80.8448 182.731 80.4416 183.422 80.4416C184.258 80.4416 185.035 81.0176 185.035 82.0544C185.035 83.1488 184.142 83.7824 183.134 83.6384C184.142 85.3376 186.302 85.8272 187.541 85.8272C188.808 85.8272 190.795 84.992 190.795 81.0752C190.795 78.2528 189.73 76.2944 187.368 76.2944H186.101C185.611 76.2944 185.41 76.2944 185.41 75.9776C185.41 75.6896 185.611 75.6608 185.842 75.632C186.043 75.632 186.734 75.5744 186.965 75.5456C187.685 75.5168 188.664 75.4304 189.528 74.048C190.277 72.7808 190.334 71.1104 190.334 70.7648C190.334 68.1728 188.75 67.5392 187.57 67.5392C186.533 67.5392 184.632 67.9136 183.739 69.3248C184.171 69.3248 185.525 69.3248 185.525 70.7648C185.525 71.6 184.949 72.2336 184.056 72.2336C183.221 72.2336 182.587 71.6864 182.587 70.736C182.587 68.5472 184.776 66.8192 187.685 66.8192C190.45 66.8192 192.984 68.432 192.984 70.7936C192.984 73.0688 191.314 75.0848 188.952 75.8624C191.947 76.4672 193.762 78.7136 193.762 81.0752Z" fill="#111111"/>
<path d="M310.683 92.352C310.683 98.448 305.787 103.056 300.219 103.056C294.843 103.056 291.531 98.4 291.531 94.272C291.531 92.064 293.211 91.728 293.883 91.728C295.467 91.728 296.283 92.928 296.283 94.08C296.283 95.232 295.467 96.432 293.883 96.432C293.355 96.432 293.211 96.384 293.067 96.336C293.883 99.168 296.619 101.712 300.123 101.712C302.331 101.712 304.107 100.464 305.259 98.592C306.411 96.576 306.411 93.696 306.411 92.016C306.411 89.616 306.315 87.744 305.547 85.968C305.163 85.104 303.963 82.896 301.467 82.896C297.579 82.896 295.803 85.488 295.275 86.256C295.083 86.544 294.987 86.688 294.651 86.688C293.979 86.688 293.979 86.304 293.979 85.44V71.232C293.979 70.464 293.979 70.08 294.459 70.08C294.459 70.08 294.651 70.08 295.035 70.224C297.291 71.232 299.499 71.568 301.419 71.568C304.635 71.568 306.987 70.608 307.947 70.176C308.187 70.032 308.331 70.032 308.331 70.032C308.667 70.032 308.811 70.272 308.811 70.56C308.811 71.184 305.451 75.552 299.547 75.552C298.011 75.552 296.427 75.216 295.467 74.928V84.288C297.195 82.608 299.259 81.84 301.563 81.84C306.747 81.84 310.683 86.64 310.683 92.352ZM338.427 83.952C338.427 85.872 336.891 86.736 335.835 86.736C334.539 86.736 334.011 85.824 334.011 85.056C334.011 83.904 334.971 82.704 336.315 82.464C335.307 81.84 334.155 81.84 333.915 81.84C330.555 81.84 329.451 86.256 329.163 87.504L327.531 94.08C327.003 96.192 326.715 97.248 326.715 98.304C326.715 99.936 327.483 101.472 329.355 101.472C330.891 101.472 334.155 100.32 335.739 95.184C335.835 94.848 335.931 94.656 336.363 94.656C336.507 94.656 336.939 94.656 336.939 95.136C336.939 96.336 334.203 102.528 329.259 102.528C326.379 102.528 324.651 100.656 324.075 98.88C323.931 99.168 322.203 102.528 319.035 102.528C316.923 102.528 314.523 101.568 314.523 99.36C314.523 97.824 315.723 96.576 317.163 96.576C317.883 96.576 318.939 96.96 318.939 98.256C318.939 99.6 317.883 100.608 316.683 100.848C317.691 101.472 318.795 101.472 319.083 101.472C321.195 101.472 322.875 99.456 323.643 96.48C325.419 89.76 326.235 86.544 326.235 85.056C326.235 82.272 324.555 81.84 323.643 81.84C322.011 81.84 318.843 83.04 317.211 88.128C317.115 88.56 316.971 88.656 316.587 88.656C316.587 88.656 316.011 88.656 316.011 88.176C316.011 86.976 318.747 80.784 323.739 80.784C325.131 80.784 327.723 81.264 328.923 84.432C329.499 83.328 331.179 80.784 333.963 80.784C335.595 80.784 338.427 81.456 338.427 83.952ZM353.531 80.9888L352.725 86H342.04C342.04 85.3088 342.04 85.2512 342.357 84.9344L347.886 78.7712C349.47 76.9856 350.91 74.7104 350.91 72.4064C350.91 70.0448 349.672 67.712 347.051 67.712C345.381 67.712 343.826 68.7776 343.163 70.6496C343.25 70.6208 343.307 70.6208 343.538 70.6208C344.546 70.6208 345.064 71.3696 345.064 72.1184C345.064 73.2992 344.056 73.6448 343.566 73.6448C343.48 73.6448 342.04 73.6448 342.04 72.032C342.04 69.4688 344.171 66.8192 347.426 66.8192C350.939 66.8192 353.531 69.1232 353.531 72.4064C353.531 75.2864 351.803 76.8416 347.31 80.816L344.258 83.7824H349.442C350.075 83.7824 351.976 83.7824 352.178 83.552C352.466 83.12 352.667 81.8528 352.811 80.9888H353.531Z" fill="#111111"/>
<path d="M471.611 86.64C471.611 90.432 471.371 94.176 469.835 97.488C467.723 102.048 464.075 103.056 461.483 103.056C459.131 103.056 455.627 102.096 453.563 98.208C451.595 94.56 451.403 90.24 451.403 86.64C451.403 82.8 451.643 79.056 453.179 75.744C455.147 71.28 458.651 70.032 461.531 70.032C463.547 70.032 467.483 70.8 469.691 75.408C471.371 78.96 471.611 82.8 471.611 86.64ZM467.627 86.064C467.627 83.04 467.627 79.392 467.147 76.704C466.235 71.952 463.067 71.088 461.483 71.088C460.283 71.088 456.683 71.52 455.771 77.232C455.387 79.824 455.387 82.992 455.387 86.064C455.387 88.896 455.387 93.312 455.915 96.192C456.779 100.8 459.611 102 461.483 102C463.643 102 466.379 100.56 467.099 96C467.627 92.928 467.627 89.664 467.627 86.064ZM498.827 83.952C498.827 85.872 497.291 86.736 496.235 86.736C494.939 86.736 494.411 85.824 494.411 85.056C494.411 83.904 495.371 82.704 496.715 82.464C495.707 81.84 494.555 81.84 494.315 81.84C490.955 81.84 489.851 86.256 489.563 87.504L487.931 94.08C487.403 96.192 487.115 97.248 487.115 98.304C487.115 99.936 487.883 101.472 489.755 101.472C491.291 101.472 494.555 100.32 496.139 95.184C496.235 94.848 496.331 94.656 496.763 94.656C496.907 94.656 497.339 94.656 497.339 95.136C497.339 96.336 494.603 102.528 489.659 102.528C486.779 102.528 485.051 100.656 484.475 98.88C484.331 99.168 482.603 102.528 479.435 102.528C477.323 102.528 474.923 101.568 474.923 99.36C474.923 97.824 476.123 96.576 477.563 96.576C478.283 96.576 479.339 96.96 479.339 98.256C479.339 99.6 478.283 100.608 477.083 100.848C478.091 101.472 479.195 101.472 479.483 101.472C481.595 101.472 483.275 99.456 484.043 96.48C485.819 89.76 486.635 86.544 486.635 85.056C486.635 82.272 484.955 81.84 484.043 81.84C482.411 81.84 479.243 83.04 477.611 88.128C477.515 88.56 477.371 88.656 476.987 88.656C476.987 88.656 476.411 88.656 476.411 88.176C476.411 86.976 479.147 80.784 484.139 80.784C485.531 80.784 488.123 81.264 489.323 84.432C489.899 83.328 491.579 80.784 494.363 80.784C495.995 80.784 498.827 81.456 498.827 83.952Z" fill="#111111"/>
<path d="M564.297 90C564.297 90.528 563.865 90.96 563.337 90.96H533.289C532.761 90.96 532.329 90.528 532.329 90C532.329 89.472 532.761 89.04 533.289 89.04H563.337C563.865 89.04 564.297 89.472 564.297 90Z" fill="#111111"/>
<path d="M617.608 94.08H612.808V98.256C612.808 99.984 612.904 100.512 616.456 100.512H617.464V102C615.496 101.856 612.952 101.856 610.936 101.856C608.92 101.856 606.424 101.856 604.456 102V100.512H605.464C609.016 100.512 609.112 99.984 609.112 98.256V94.08H596.344V92.592L611.08 70.08C611.464 69.504 611.608 69.504 612.04 69.504C612.808 69.504 612.808 69.792 612.808 70.752V92.592H617.608V94.08ZM609.4 92.592V74.688L597.688 92.592H609.4Z" fill="#111111"/>
<path d="M258.297 90C258.297 90.528 257.865 90.96 257.337 90.96H243.273V105.024C243.273 105.552 242.841 105.984 242.313 105.984C241.785 105.984 241.353 105.552 241.353 105.024V90.96H227.289C226.761 90.96 226.329 90.528 226.329 90C226.329 89.472 226.761 89.04 227.289 89.04H241.353V74.976C241.353 74.448 241.785 74.016 242.313 74.016C242.841 74.016 243.273 74.448 243.273 74.976V89.04H257.337C257.865 89.04 258.297 89.472 258.297 90Z" fill="#111111"/>
<path d="M418.297 90C418.297 90.528 417.865 90.96 417.337 90.96H403.273V105.024C403.273 105.552 402.841 105.984 402.313 105.984C401.785 105.984 401.353 105.552 401.353 105.024V90.96H387.289C386.761 90.96 386.329 90.528 386.329 90C386.329 89.472 386.761 89.04 387.289 89.04H401.353V74.976C401.353 74.448 401.785 74.016 402.313 74.016C402.841 74.016 403.273 74.448 403.273 74.976V89.04H417.337C417.865 89.04 418.297 89.472 418.297 90Z" fill="#111111"/>
<path d="M126.411 171.424C126.411 171.664 126.171 171.904 125.931 171.904C125.835 171.904 125.739 171.856 125.643 171.808C120.363 167.824 115.323 158.224 115.323 150.016V145.984C115.323 137.776 120.363 128.176 125.643 124.192C125.739 124.144 125.835 124.096 125.931 124.096C126.171 124.096 126.411 124.336 126.411 124.576C126.411 124.72 126.315 124.864 126.219 124.96C121.227 128.704 117.915 138.304 117.915 145.984V150.016C117.915 157.696 121.227 167.296 126.219 171.04C126.315 171.136 126.411 171.28 126.411 171.424ZM151.067 151.792C151.067 156.688 146.699 161.056 140.843 161.056C135.611 161.056 131.147 157.888 131.147 153.52C131.147 151.408 132.683 150.736 133.835 150.736C135.227 150.736 136.523 151.696 136.523 153.424C136.523 155.248 135.035 156.304 133.355 156.064C135.035 158.896 138.635 159.712 140.699 159.712C142.811 159.712 146.123 158.32 146.123 151.792C146.123 147.088 144.347 143.824 140.411 143.824H138.299C137.483 143.824 137.147 143.824 137.147 143.296C137.147 142.816 137.483 142.768 137.867 142.72C138.203 142.72 139.355 142.624 139.739 142.576C140.939 142.528 142.571 142.384 144.011 140.08C145.259 137.968 145.355 135.184 145.355 134.608C145.355 130.288 142.715 129.232 140.747 129.232C139.019 129.232 135.851 129.856 134.363 132.208C135.083 132.208 137.339 132.208 137.339 134.608C137.339 136 136.379 137.056 134.891 137.056C133.499 137.056 132.443 136.144 132.443 134.56C132.443 130.912 136.091 128.032 140.939 128.032C145.547 128.032 149.771 130.72 149.771 134.656C149.771 138.448 146.987 141.808 143.051 143.104C148.043 144.112 151.067 147.856 151.067 151.792ZM178.427 141.952C178.427 143.872 176.891 144.736 175.835 144.736C174.539 144.736 174.011 143.824 174.011 143.056C174.011 141.904 174.971 140.704 176.315 140.464C175.307 139.84 174.155 139.84 173.915 139.84C170.555 139.84 169.451 144.256 169.163 145.504L167.531 152.08C167.003 154.192 166.715 155.248 166.715 156.304C166.715 157.936 167.483 159.472 169.355 159.472C170.891 159.472 174.155 158.32 175.739 153.184C175.835 152.848 175.931 152.656 176.363 152.656C176.507 152.656 176.939 152.656 176.939 153.136C176.939 154.336 174.203 160.528 169.259 160.528C166.379 160.528 164.651 158.656 164.075 156.88C163.931 157.168 162.203 160.528 159.035 160.528C156.923 160.528 154.523 159.568 154.523 157.36C154.523 155.824 155.723 154.576 157.163 154.576C157.883 154.576 158.939 154.96 158.939 156.256C158.939 157.6 157.883 158.608 156.683 158.848C157.691 159.472 158.795 159.472 159.083 159.472C161.195 159.472 162.875 157.456 163.643 154.48C165.419 147.76 166.235 144.544 166.235 143.056C166.235 140.272 164.555 139.84 163.643 139.84C162.011 139.84 158.843 141.04 157.211 146.128C157.115 146.56 156.971 146.656 156.587 146.656C156.587 146.656 156.011 146.656 156.011 146.176C156.011 144.976 158.747 138.784 163.739 138.784C165.131 138.784 167.723 139.264 168.923 142.432C169.499 141.328 171.179 138.784 173.963 138.784C175.595 138.784 178.427 139.456 178.427 141.952ZM193.762 139.075C193.762 142.013 191.141 144.634 187.627 144.634C184.488 144.634 181.81 142.733 181.81 140.112C181.81 138.845 182.731 138.442 183.422 138.442C184.258 138.442 185.035 139.018 185.035 140.054C185.035 141.149 184.142 141.782 183.134 141.638C184.142 143.338 186.302 143.827 187.541 143.827C188.808 143.827 190.795 142.992 190.795 139.075C190.795 136.253 189.73 134.294 187.368 134.294H186.101C185.611 134.294 185.41 134.294 185.41 133.978C185.41 133.69 185.611 133.661 185.842 133.632C186.043 133.632 186.734 133.574 186.965 133.546C187.685 133.517 188.664 133.43 189.528 132.048C190.277 130.781 190.334 129.11 190.334 128.765C190.334 126.173 188.75 125.539 187.57 125.539C186.533 125.539 184.632 125.914 183.739 127.325C184.171 127.325 185.525 127.325 185.525 128.765C185.525 129.6 184.949 130.234 184.056 130.234C183.221 130.234 182.587 129.686 182.587 128.736C182.587 126.547 184.776 124.819 187.685 124.819C190.45 124.819 192.984 126.432 192.984 128.794C192.984 131.069 191.314 133.085 188.952 133.862C191.947 134.467 193.762 136.714 193.762 139.075Z" fill="#386EF6"/>
<path d="M311.547 150.208C311.547 156.544 306.987 161.056 301.659 161.056C297.195 161.056 291.627 157.648 291.627 144.832C291.627 134.224 298.107 128.032 304.251 128.032C308.235 128.032 310.347 130.336 310.347 133.216C310.347 135.088 308.907 135.52 308.139 135.52C307.083 135.52 305.931 134.8 305.931 133.312C305.931 131.152 307.851 131.152 308.571 131.152C307.515 129.52 305.499 129.232 304.347 129.232C301.899 129.232 295.947 130.96 295.947 143.104V144.256C296.907 141.952 298.683 139.504 301.947 139.504C307.275 139.504 311.547 144.112 311.547 150.208ZM307.227 150.16C307.227 147.808 307.227 145.36 306.363 143.584C304.875 140.608 302.667 140.608 301.899 140.608C297.579 140.608 296.043 145.408 296.043 149.152C296.043 150.016 296.043 153.856 296.907 156.112C297.195 156.832 298.635 159.712 301.659 159.712C302.763 159.712 304.971 159.472 306.411 156.592C307.227 154.864 307.227 152.464 307.227 150.16ZM338.907 141.952C338.907 143.872 337.371 144.736 336.315 144.736C335.019 144.736 334.491 143.824 334.491 143.056C334.491 141.904 335.451 140.704 336.795 140.464C335.787 139.84 334.635 139.84 334.395 139.84C331.035 139.84 329.931 144.256 329.643 145.504L328.011 152.08C327.483 154.192 327.195 155.248 327.195 156.304C327.195 157.936 327.963 159.472 329.835 159.472C331.371 159.472 334.635 158.32 336.219 153.184C336.315 152.848 336.411 152.656 336.843 152.656C336.987 152.656 337.419 152.656 337.419 153.136C337.419 154.336 334.683 160.528 329.739 160.528C326.859 160.528 325.131 158.656 324.555 156.88C324.411 157.168 322.683 160.528 319.515 160.528C317.403 160.528 315.003 159.568 315.003 157.36C315.003 155.824 316.203 154.576 317.643 154.576C318.363 154.576 319.419 154.96 319.419 156.256C319.419 157.6 318.363 158.608 317.163 158.848C318.171 159.472 319.275 159.472 319.563 159.472C321.675 159.472 323.355 157.456 324.123 154.48C325.899 147.76 326.715 144.544 326.715 143.056C326.715 140.272 325.035 139.84 324.123 139.84C322.491 139.84 319.323 141.04 317.691 146.128C317.595 146.56 317.451 146.656 317.067 146.656C317.067 146.656 316.491 146.656 316.491 146.176C316.491 144.976 319.227 138.784 324.219 138.784C325.611 138.784 328.203 139.264 329.403 142.432C329.979 141.328 331.659 138.784 334.443 138.784C336.075 138.784 338.907 139.456 338.907 141.952ZM354.011 138.989L353.205 144H342.52C342.52 143.309 342.52 143.251 342.837 142.934L348.366 136.771C349.95 134.986 351.39 132.71 351.39 130.406C351.39 128.045 350.152 125.712 347.531 125.712C345.861 125.712 344.305 126.778 343.643 128.65C343.729 128.621 343.787 128.621 344.017 128.621C345.025 128.621 345.544 129.37 345.544 130.118C345.544 131.299 344.536 131.645 344.046 131.645C343.96 131.645 342.52 131.645 342.52 130.032C342.52 127.469 344.651 124.819 347.905 124.819C351.419 124.819 354.011 127.123 354.011 130.406C354.011 133.286 352.283 134.842 347.79 138.816L344.737 141.782H349.921C350.555 141.782 352.456 141.782 352.657 141.552C352.945 141.12 353.147 139.853 353.291 138.989H354.011ZM370.168 150.016C370.168 158.224 365.128 167.824 359.848 171.808C359.752 171.856 359.656 171.904 359.56 171.904C359.32 171.904 359.08 171.664 359.08 171.424C359.08 171.28 359.176 171.136 359.272 171.04C364.264 167.296 367.576 157.696 367.576 150.016V145.984C367.576 138.304 364.264 128.704 359.272 124.96C359.176 124.864 359.08 124.72 359.08 124.576C359.08 124.336 359.32 124.096 359.56 124.096C359.656 124.096 359.752 124.144 359.848 124.192C365.128 128.176 370.168 137.776 370.168 145.984V150.016Z" fill="#386EF6"/>
<path d="M311.067 35.792C311.067 40.688 306.699 45.056 300.843 45.056C295.611 45.056 291.147 41.888 291.147 37.52C291.147 35.408 292.683 34.736 293.835 34.736C295.227 34.736 296.523 35.696 296.523 37.424C296.523 39.248 295.035 40.304 293.355 40.064C295.035 42.896 298.635 43.712 300.699 43.712C302.811 43.712 306.123 42.32 306.123 35.792C306.123 31.088 304.347 27.824 300.411 27.824H298.299C297.483 27.824 297.147 27.824 297.147 27.296C297.147 26.816 297.483 26.768 297.867 26.72C298.203 26.72 299.355 26.624 299.739 26.576C300.939 26.528 302.571 26.384 304.011 24.08C305.259 21.968 305.355 19.184 305.355 18.608C305.355 14.288 302.715 13.232 300.747 13.232C299.019 13.232 295.851 13.856 294.363 16.208C295.083 16.208 297.339 16.208 297.339 18.608C297.339 20 296.379 21.056 294.891 21.056C293.499 21.056 292.443 20.144 292.443 18.56C292.443 14.912 296.091 12.032 300.939 12.032C305.547 12.032 309.771 14.72 309.771 18.656C309.771 22.448 306.987 25.808 303.051 27.104C308.043 28.112 311.067 31.856 311.067 35.792ZM338.427 25.952C338.427 27.872 336.891 28.736 335.835 28.736C334.539 28.736 334.011 27.824 334.011 27.056C334.011 25.904 334.971 24.704 336.315 24.464C335.307 23.84 334.155 23.84 333.915 23.84C330.555 23.84 329.451 28.256 329.163 29.504L327.531 36.08C327.003 38.192 326.715 39.248 326.715 40.304C326.715 41.936 327.483 43.472 329.355 43.472C330.891 43.472 334.155 42.32 335.739 37.184C335.835 36.848 335.931 36.656 336.363 36.656C336.507 36.656 336.939 36.656 336.939 37.136C336.939 38.336 334.203 44.528 329.259 44.528C326.379 44.528 324.651 42.656 324.075 40.88C323.931 41.168 322.203 44.528 319.035 44.528C316.923 44.528 314.523 43.568 314.523 41.36C314.523 39.824 315.723 38.576 317.163 38.576C317.883 38.576 318.939 38.96 318.939 40.256C318.939 41.6 317.883 42.608 316.683 42.848C317.691 43.472 318.795 43.472 319.083 43.472C321.195 43.472 322.875 41.456 323.643 38.48C325.419 31.76 326.235 28.544 326.235 27.056C326.235 24.272 324.555 23.84 323.643 23.84C322.011 23.84 318.843 25.04 317.211 30.128C317.115 30.56 316.971 30.656 316.587 30.656C316.587 30.656 316.011 30.656 316.011 30.176C316.011 28.976 318.747 22.784 323.739 22.784C325.131 22.784 327.723 23.264 328.923 26.432C329.499 25.328 331.179 22.784 333.963 22.784C335.595 22.784 338.427 23.456 338.427 25.952ZM353.531 22.9888L352.725 28H342.04C342.04 27.3088 342.04 27.2512 342.357 26.9344L347.886 20.7712C349.47 18.9856 350.91 16.7104 350.91 14.4064C350.91 12.0448 349.672 9.712 347.051 9.712C345.381 9.712 343.826 10.7776 343.163 12.6496C343.25 12.6208 343.307 12.6208 343.538 12.6208C344.546 12.6208 345.064 13.3696 345.064 14.1184C345.064 15.2992 344.056 15.6448 343.566 15.6448C343.48 15.6448 342.04 15.6448 342.04 14.032C342.04 11.4688 344.171 8.8192 347.426 8.8192C350.939 8.8192 353.531 11.1232 353.531 14.4064C353.531 17.2864 351.803 18.8416 347.31 22.816L344.258 25.7824H349.442C350.075 25.7824 351.976 25.7824 352.178 25.552C352.466 25.12 352.667 23.8528 352.811 22.9888H353.531Z" fill="#386EF6"/>
<path d="M258.297 148C258.297 148.528 257.865 148.96 257.337 148.96H243.273V163.024C243.273 163.552 242.841 163.984 242.313 163.984C241.785 163.984 241.353 163.552 241.353 163.024V148.96H227.289C226.761 148.96 226.329 148.528 226.329 148C226.329 147.472 226.761 147.04 227.289 147.04H241.353V132.976C241.353 132.448 241.785 132.016 242.313 132.016C242.841 132.016 243.273 132.448 243.273 132.976V147.04H257.337C257.865 147.04 258.297 147.472 258.297 148Z" fill="#386EF6"/>
<path d="M30.4679 83.952C30.4679 85.872 28.9319 86.736 27.8759 86.736C26.5799 86.736 26.0519 85.824 26.0519 85.056C26.0519 83.904 27.0119 82.704 28.3559 82.464C27.3479 81.84 26.1959 81.84 25.9559 81.84C22.5959 81.84 21.4919 86.256 21.2039 87.504L19.5719 94.08C19.0439 96.192 18.7559 97.248 18.7559 98.304C18.7559 99.936 19.5239 101.472 21.3959 101.472C22.9319 101.472 26.1959 100.32 27.7799 95.184C27.8759 94.848 27.9719 94.656 28.4039 94.656C28.5479 94.656 28.9799 94.656 28.9799 95.136C28.9799 96.336 26.2439 102.528 21.2999 102.528C18.4199 102.528 16.6919 100.656 16.1159 98.88C15.9719 99.168 14.2439 102.528 11.0759 102.528C8.96388 102.528 6.56388 101.568 6.56388 99.36C6.56388 97.824 7.76388 96.576 9.20388 96.576C9.92388 96.576 10.9799 96.96 10.9799 98.256C10.9799 99.6 9.92388 100.608 8.72388 100.848C9.73188 101.472 10.8359 101.472 11.1239 101.472C13.2359 101.472 14.9159 99.456 15.6839 96.48C17.4599 89.76 18.2759 86.544 18.2759 85.056C18.2759 82.272 16.5959 81.84 15.6839 81.84C14.0519 81.84 10.8839 83.04 9.25188 88.128C9.15588 88.56 9.01188 88.656 8.62788 88.656C8.62788 88.656 8.05188 88.656 8.05188 88.176C8.05188 86.976 10.7879 80.784 15.7799 80.784C17.1719 80.784 19.7639 81.264 20.9639 84.432C21.5399 83.328 23.2199 80.784 26.0039 80.784C27.6359 80.784 30.4679 81.456 30.4679 83.952ZM67.2966 90C67.2966 90.528 66.8646 90.96 66.3366 90.96H52.2726V105.024C52.2726 105.552 51.8406 105.984 51.3126 105.984C50.7846 105.984 50.3526 105.552 50.3526 105.024V90.96H36.2886C35.7606 90.96 35.3286 90.528 35.3286 90C35.3286 89.472 35.7606 89.04 36.2886 89.04H50.3526V74.976C50.3526 74.448 50.7846 74.016 51.3126 74.016C51.8406 74.016 52.2726 74.448 52.2726 74.976V89.04H66.3366C66.8646 89.04 67.2966 89.472 67.2966 90ZM91.552 93.648L90.208 102H72.4C72.4 100.848 72.4 100.752 72.928 100.224L82.144 89.952C84.784 86.976 87.184 83.184 87.184 79.344C87.184 75.408 85.12 71.52 80.752 71.52C77.968 71.52 75.376 73.296 74.272 76.416C74.416 76.368 74.512 76.368 74.896 76.368C76.576 76.368 77.44 77.616 77.44 78.864C77.44 80.832 75.76 81.408 74.944 81.408C74.8 81.408 72.4 81.408 72.4 78.72C72.4 74.448 75.952 70.032 81.376 70.032C87.232 70.032 91.552 73.872 91.552 79.344C91.552 84.144 88.672 86.736 81.184 93.36L76.096 98.304H84.736C85.792 98.304 88.96 98.304 89.296 97.92C89.776 97.2 90.112 95.088 90.352 93.648H91.552Z" fill="#111111"/>
<path d="M310.428 206C310.428 206.528 309.996 206.96 309.468 206.96H279.42C278.892 206.96 278.46 206.528 278.46 206C278.46 205.472 278.892 205.04 279.42 205.04H309.468C309.996 205.04 310.428 205.472 310.428 206ZM338.427 199.952C338.427 201.872 336.891 202.736 335.835 202.736C334.539 202.736 334.011 201.824 334.011 201.056C334.011 199.904 334.971 198.704 336.315 198.464C335.307 197.84 334.155 197.84 333.915 197.84C330.555 197.84 329.451 202.256 329.163 203.504L327.531 210.08C327.003 212.192 326.715 213.248 326.715 214.304C326.715 215.936 327.483 217.472 329.355 217.472C330.891 217.472 334.155 216.32 335.739 211.184C335.835 210.848 335.931 210.656 336.363 210.656C336.507 210.656 336.939 210.656 336.939 211.136C336.939 212.336 334.203 218.528 329.259 218.528C326.379 218.528 324.651 216.656 324.075 214.88C323.931 215.168 322.203 218.528 319.035 218.528C316.923 218.528 314.523 217.568 314.523 215.36C314.523 213.824 315.723 212.576 317.163 212.576C317.883 212.576 318.939 212.96 318.939 214.256C318.939 215.6 317.883 216.608 316.683 216.848C317.691 217.472 318.795 217.472 319.083 217.472C321.195 217.472 322.875 215.456 323.643 212.48C325.419 205.76 326.235 202.544 326.235 201.056C326.235 198.272 324.555 197.84 323.643 197.84C322.011 197.84 318.843 199.04 317.211 204.128C317.115 204.56 316.971 204.656 316.587 204.656C316.587 204.656 316.011 204.656 316.011 204.176C316.011 202.976 318.747 196.784 323.739 196.784C325.131 196.784 327.723 197.264 328.923 200.432C329.499 199.328 331.179 196.784 333.963 196.784C335.595 196.784 338.427 197.456 338.427 199.952ZM353.531 196.989L352.725 202H342.04C342.04 201.309 342.04 201.251 342.357 200.934L347.886 194.771C349.47 192.986 350.91 190.71 350.91 188.406C350.91 186.045 349.672 183.712 347.051 183.712C345.381 183.712 343.826 184.778 343.163 186.65C343.25 186.621 343.307 186.621 343.538 186.621C344.546 186.621 345.064 187.37 345.064 188.118C345.064 189.299 344.056 189.645 343.566 189.645C343.48 189.645 342.04 189.645 342.04 188.032C342.04 185.469 344.171 182.819 347.426 182.819C350.939 182.819 353.531 185.123 353.531 188.406C353.531 191.286 351.803 192.842 347.31 196.816L344.258 199.782H349.442C350.075 199.782 351.976 199.782 352.178 199.552C352.466 199.12 352.667 197.853 352.811 196.989H353.531Z" fill="#111111"/>
<path d="M111 58H619" stroke="#111111" stroke-width="2" stroke-linecap="round"/>
<path d="M111 58C114.93 66.0576 117 74.4217 117 83C117 91.5782 114.93 99.9424 111 108" stroke="#111111" stroke-width="2" stroke-linecap="round"/>
<path d="M102.297 148C102.297 148.528 101.865 148.96 101.337 148.96H71.2886C70.7606 148.96 70.3286 148.528 70.3286 148C70.3286 147.472 70.7606 147.04 71.2886 147.04H101.337C101.865 147.04 102.297 147.472 102.297 148Z" fill="#111111"/>
<path d="M81 174L375 174" stroke="#111111" stroke-width="2" stroke-linecap="round"/>
</svg>
