<svg width="202" height="201" viewBox="0 0 202 201" fill="none" xmlns="http://www.w3.org/2000/svg">
<path d="M101.528 0.146447C101.333 -0.0488155 101.017 -0.0488155 100.821 0.146447L97.6393 3.32843C97.444 3.52369 97.444 3.84027 97.6393 4.03553C97.8345 4.2308 98.1511 4.2308 98.3464 4.03553L101.175 1.20711L104.003 4.03553C104.198 4.2308 104.515 4.2308 104.71 4.03553C104.906 3.84027 104.906 3.52369 104.71 3.32843L101.528 0.146447ZM100.821 200.854C101.017 201.049 101.333 201.049 101.528 200.854L104.71 197.672C104.906 197.476 104.906 197.16 104.71 196.964C104.515 196.769 104.198 196.769 104.003 196.964L101.175 199.793L98.3464 196.964C98.1511 196.769 97.8345 196.769 97.6393 196.964C97.444 197.16 97.444 197.476 97.6393 197.672L100.821 200.854ZM101.175 0.5H100.675V200.5H101.175H101.675V0.5H101.175Z" fill="#111111"/>
<g opacity="0.2">
<path d="M11.1758 3.5V197.5" stroke="#111111" stroke-width="0.65" stroke-linecap="round"/>
<path d="M29.1758 3.5V197.5" stroke="#111111" stroke-width="0.65" stroke-linecap="round"/>
<path d="M47.1758 3.5V197.5" stroke="#111111" stroke-width="0.65" stroke-linecap="round"/>
<path d="M65.1758 3.5V197.5" stroke="#111111" stroke-width="0.65" stroke-linecap="round"/>
<path d="M83.1758 3.5V197.5" stroke="#111111" stroke-width="0.65" stroke-linecap="round"/>
<path d="M101.176 3.5V197.5" stroke="#111111" stroke-width="0.65" stroke-linecap="round"/>
<path d="M119.176 3.5V197.5" stroke="#111111" stroke-width="0.65" stroke-linecap="round"/>
<path d="M137.176 3.5V197.5" stroke="#111111" stroke-width="0.65" stroke-linecap="round"/>
<path d="M155.176 3.5V197.5" stroke="#111111" stroke-width="0.65" stroke-linecap="round"/>
<path d="M173.176 3.5V197.5" stroke="#111111" stroke-width="0.65" stroke-linecap="round"/>
<path d="M191.176 3.5V197.5" stroke="#111111" stroke-width="0.65" stroke-linecap="round"/>
<path d="M198.176 10.5L4.17571 10.5" stroke="#111111" stroke-width="0.65" stroke-linecap="round"/>
<path d="M198.176 28.5L4.17571 28.5" stroke="#111111" stroke-width="0.65" stroke-linecap="round"/>
<path d="M198.176 46.5L4.17571 46.5" stroke="#111111" stroke-width="0.65" stroke-linecap="round"/>
<path d="M198.176 64.5L4.17571 64.5" stroke="#111111" stroke-width="0.65" stroke-linecap="round"/>
<path d="M198.176 82.5L4.17571 82.5" stroke="#111111" stroke-width="0.65" stroke-linecap="round"/>
<path d="M198.176 100.5L4.17571 100.5" stroke="#111111" stroke-width="0.65" stroke-linecap="round"/>
<path d="M198.176 118.5L4.17571 118.5" stroke="#111111" stroke-width="0.65" stroke-linecap="round"/>
<path d="M198.176 136.5L4.17571 136.5" stroke="#111111" stroke-width="0.65" stroke-linecap="round"/>
<path d="M198.176 154.5L4.17571 154.5" stroke="#111111" stroke-width="0.65" stroke-linecap="round"/>
<path d="M198.176 172.5L4.17571 172.5" stroke="#111111" stroke-width="0.65" stroke-linecap="round"/>
<path d="M198.176 190.5L4.17571 190.5" stroke="#111111" stroke-width="0.65" stroke-linecap="round"/>
</g>
<path d="M201.528 100.854C201.724 100.658 201.724 100.342 201.528 100.146L198.346 96.9645C198.151 96.7692 197.835 96.7692 197.639 96.9645C197.444 97.1597 197.444 97.4763 197.639 97.6716L200.468 100.5L197.639 103.328C197.444 103.524 197.444 103.84 197.639 104.036C197.835 104.231 198.151 104.231 198.346 104.036L201.528 100.854ZM0.821243 100.146C0.625992 100.342 0.625992 100.658 0.821243 100.854L4.00322 104.036C4.19849 104.231 4.51508 104.231 4.71033 104.036C4.90559 103.84 4.90559 103.524 4.71033 103.328L1.88191 100.5L4.71033 97.6716C4.90559 97.4763 4.90559 97.1597 4.71033 96.9645C4.51508 96.7692 4.19849 96.7692 4.00322 96.9645L0.821243 100.146ZM201.175 100.5L201.175 100L1.1748 100L1.1748 100.5L1.1748 101L201.175 101L201.175 100.5Z" fill="#111111"/>
<path d="M102.34 64.3508C102.423 64.9945 101.968 65.5831 101.324 65.6655C100.68 65.7479 100.092 65.2928 100.009 64.6492L101.175 64.5L102.34 64.3508ZM0.215892 25.1791C-0.159138 24.6495 -0.03384 23.9161 0.495753 23.5411L9.12597 17.4296C9.65556 17.0546 10.3889 17.1799 10.7639 17.7095C11.139 18.2391 11.0137 18.9724 10.4841 19.3474L2.81277 24.7799L8.24518 32.4512C8.62021 32.9808 8.49491 33.7141 7.96532 34.0891C7.43573 34.4642 6.70239 34.3389 6.32736 33.8093L0.215892 25.1791ZM1.1748 24.5L1.3727 23.3418C25.8846 27.5299 50.3408 32.6592 69.0013 39.2052C78.3271 42.4767 86.272 46.1244 92.0649 50.2272C97.8381 54.3161 101.654 58.9881 102.34 64.3508L101.175 64.5L100.009 64.6492C99.4456 60.2445 96.2615 56.0792 90.7066 52.1449C85.1713 48.2245 77.46 44.6629 68.2234 41.4227C49.7588 34.9454 25.465 29.8422 0.976913 25.6582L1.1748 24.5Z" fill="#386EF6"/>
<circle cx="101.175" cy="64.5" r="5" fill="#D10808"/>
<circle opacity="0.35" cx="83.1748" cy="46.5" r="5" fill="#D10808"/>
</svg>
